<?xml version="1.0" encoding="iso-8859-1"?>
<!-- Generator: Adobe Illustrator 16.0.0, SVG Export Plug-In . SVG Version: 6.00 Build 0)  -->
<!DOCTYPE svg PUBLIC "-//W3C//DTD SVG 1.1//EN" "http://www.w3.org/Graphics/SVG/1.1/DTD/svg11.dtd">
<svg version="1.1" xmlns="http://www.w3.org/2000/svg" x="0px" y="0px" width="512px"
	 height="512px" viewBox="0 0 512 512" style="enable-background:new 0 0 512 512;" xml:space="preserve">
<g id="_x38_89-Comment_x2C__Compose_x2C__Edit">
	<path style="fill:#F88F19;" d="M55,50c8.28,0,15,6.72,15,15s-6.72,15-15,15s-15-6.72-15-15S46.72,50,55,50z"/>
	<path style="fill:#F88F19;" d="M425,50c13.81,0,25,11.19,25,25s-11.19,25-25,25s-25-11.19-25-25S411.19,50,425,50z"/>
	<rect x="410" y="190" style="fill:#3F4751;" width="60" height="30"/>
	<polygon style="fill:#757D8C;" points="470,220 470,400 440,450 410,400 410,220 	"/>
	<path style="fill:#D94556;" d="M470,160v30h-60v-30c0-16.57,13.43-30,30-30c8.28,0,15.78,3.36,21.21,8.79S470,151.72,470,160z"/>
	<path style="fill:#3256C1;" d="M80,137c0-25.96,21.04-47,47-47h33c0,25.154,0,346.246,0,360h-33c-26.106,0-47-21.19-47-47
		C80,277.929,80,254.95,80,137z"/>
	<path style="fill:#079CFF;" d="M380,400v3c0,25.96-21.04,47-47,47H160v-50H380z"/>
	<path style="fill:#5CBEFF;" d="M380,137v263H160V90h173C358.96,90,380,111.04,380,137z"/>
	<path d="M400,460c5.52,0,10,4.48,10,10s-4.48,10-10,10s-10-4.48-10-10S394.48,460,400,460z"/>
	<path d="M360,50c5.52,0,10,4.48,10,10s-4.48,10-10,10s-10-4.48-10-10S354.48,50,360,50z"/>
	<path d="M300,230c5.52,0,10,4.48,10,10s-4.48,10-10,10s-10-4.48-10-10S294.48,230,300,230z"/>
	<path d="M120,40c5.52,0,10,4.48,10,10s-4.48,10-10,10s-10-4.48-10-10S114.48,40,120,40z"/>
	<path d="M70,450c5.52,0,10,4.48,10,10s-4.48,10-10,10s-10-4.48-10-10S64.48,450,70,450z"/>
	<path d="M333,460H127c-28.006,0-52.241-20.86-56.37-48.523C70.212,408.673,70,405.821,70,403V137c0-31.43,25.57-57,57-57h206
		c31.43,0,57,25.57,57,57v266C390,434.43,364.43,460,333,460z M127,100c-20.402,0-37,16.598-37,37v266
		c0,1.838,0.138,3.697,0.411,5.525C93.089,426.468,108.819,440,127,440h206c20.402,0,37-16.598,37-37V137c0-20.402-16.598-37-37-37
		H127z"/>
	<path d="M440,460c-3.513,0-6.768-1.843-8.575-4.855l-30-50C400.492,403.591,400,401.813,400,400V160c0-22.056,17.944-40,40-40
		c10.681,0,20.725,4.162,28.281,11.719C475.838,139.277,480,149.32,480,160v240c0,1.813-0.492,3.591-1.425,5.145l-30,50
		C446.768,458.157,443.513,460,440,460z M420,397.23l20,33.333l20-33.333V160c0-5.338-2.082-10.359-5.861-14.139
		C450.359,142.082,445.338,140,440,140c-11.028,0-20,8.972-20,20V397.23z"/>
	<path d="M470,200h-60c-5.522,0-10-4.477-10-10s4.478-10,10-10h60c5.522,0,10,4.477,10,10S475.522,200,470,200z"/>
	<path d="M470,230h-60c-5.522,0-10-4.477-10-10s4.478-10,10-10h60c5.522,0,10,4.477,10,10S475.522,230,470,230z"/>
	<path d="M110,180H65c-13.785,0-25-11.215-25-25c0-6.687,2.607-12.967,7.342-17.684C52.033,132.607,58.313,130,65,130h15
		c5.523,0,10,4.477,10,10s-4.477,10-10,10H65c-1.795,0-2.974,0.914-3.516,1.458C60.914,152.026,60,153.205,60,155
		c0,2.757,2.243,5,5,5h45c1.795,0,2.974-0.914,3.516-1.458c0.57-0.568,1.484-1.747,1.484-3.542c0-2.757-2.243-5-5-5
		c-5.523,0-10-4.477-10-10s4.477-10,10-10c13.785,0,25,11.215,25,25c0,6.687-2.607,12.967-7.342,17.684
		C122.967,177.393,116.687,180,110,180z"/>
	<path d="M110,240H65c-13.785,0-25-11.215-25-25c0-6.687,2.607-12.967,7.342-17.684C52.033,192.607,58.313,190,65,190h15
		c5.523,0,10,4.477,10,10s-4.477,10-10,10H65c-1.795,0-2.974,0.914-3.516,1.458C60.914,212.026,60,213.205,60,215
		c0,2.757,2.243,5,5,5h45c1.795,0,2.974-0.914,3.516-1.458c0.57-0.568,1.484-1.747,1.484-3.542c0-2.757-2.243-5-5-5
		c-5.523,0-10-4.477-10-10s4.477-10,10-10c13.785,0,25,11.215,25,25c0,6.687-2.607,12.967-7.342,17.684
		C122.967,237.393,116.687,240,110,240z"/>
	<path d="M110,300H65c-13.785,0-25-11.215-25-25c0-6.686,2.607-12.966,7.342-17.684C52.032,252.608,58.313,250,65,250h15
		c5.523,0,10,4.477,10,10c0,5.522-4.477,10-10,10H65c-1.331,0-2.579,0.518-3.515,1.457C60.914,272.026,60,273.205,60,275
		c0,2.757,2.243,5,5,5h45c1.331,0,2.579-0.518,3.515-1.457c0.571-0.569,1.485-1.748,1.485-3.543c0-2.757-2.243-5-5-5
		c-5.523,0-10-4.478-10-10c0-5.523,4.477-10,10-10c13.785,0,25,11.215,25,25c0,6.686-2.607,12.966-7.342,17.684
		C122.968,297.393,116.688,300,110,300z"/>
	<path d="M110,360H65c-13.785,0-25-11.215-25-25c0-6.686,2.607-12.966,7.342-17.684C52.032,312.607,58.313,310,65,310h15
		c5.523,0,10,4.478,10,10s-4.477,10-10,10H65c-1.331,0-2.579,0.518-3.515,1.457C60.914,332.026,60,333.205,60,335
		c0,2.757,2.243,5,5,5h45c1.331,0,2.579-0.518,3.515-1.457c0.571-0.569,1.485-1.748,1.485-3.543c0-2.757-2.243-5-5-5
		c-5.523,0-10-4.478-10-10s4.477-10,10-10c13.785,0,25,11.215,25,25c0,6.686-2.607,12.966-7.342,17.684
		C122.968,357.393,116.688,360,110,360z"/>
	<path d="M110,420H65c-13.785,0-25-11.215-25-25c0-6.686,2.607-12.966,7.342-17.684C52.032,372.607,58.313,370,65,370h15
		c5.523,0,10,4.478,10,10s-4.477,10-10,10H65c-1.331,0-2.579,0.518-3.515,1.457C60.914,392.026,60,393.205,60,395
		c0,2.757,2.243,5,5,5h45c1.331,0,2.579-0.518,3.515-1.457c0.571-0.569,1.485-1.748,1.485-3.543c0-2.757-2.243-5-5-5
		c-5.523,0-10-4.478-10-10s4.477-10,10-10c13.785,0,25,11.215,25,25c0,6.686-2.607,12.966-7.342,17.684
		C122.968,417.393,116.688,420,110,420z"/>
	<path d="M160,460c-5.523,0-10-4.478-10-10V90c0-5.523,4.477-10,10-10s10,4.477,10,10v360C170,455.522,165.523,460,160,460z"/>
	<path d="M340,370H200c-5.523,0-10-4.478-10-10s4.477-10,10-10h140c5.522,0,10,4.478,10,10S345.522,370,340,370z"/>
	<path d="M340,340H200c-5.523,0-10-4.478-10-10s4.477-10,10-10h140c5.522,0,10,4.478,10,10S345.522,340,340,340z"/>
	<path d="M340,310H200c-5.523,0-10-4.478-10-10s4.477-10,10-10h140c5.522,0,10,4.478,10,10S345.522,310,340,310z"/>
	<path d="M340,280H200c-5.523,0-10-4.478-10-10s4.477-10,10-10h140c5.522,0,10,4.478,10,10S345.522,280,340,280z"/>
	<path d="M270,250h-70c-5.523,0-10-4.477-10-10s4.477-10,10-10h70c5.522,0,10,4.477,10,10S275.522,250,270,250z"/>
	<path d="M270,220h-70c-5.523,0-10-4.477-10-10s4.477-10,10-10h70c5.522,0,10,4.477,10,10S275.522,220,270,220z"/>
	<path d="M380,410H160c-5.523,0-10-4.478-10-10s4.477-10,10-10h220c5.522,0,10,4.478,10,10S385.522,410,380,410z"/>
	<path d="M55,90c-13.785,0-25-11.215-25-25s11.215-25,25-25s25,11.215,25,25S68.785,90,55,90z M55,60c-2.757,0-5,2.243-5,5
		s2.243,5,5,5s5-2.243,5-5S57.757,60,55,60z"/>
	<path d="M425,110c-19.299,0-35-15.701-35-35s15.701-35,35-35s35,15.701,35,35S444.299,110,425,110z M425,60
		c-8.271,0-15,6.729-15,15s6.729,15,15,15s15-6.729,15-15S433.271,60,425,60z"/>
</g>
<g id="Layer_1">
</g>
</svg>
